PathFileType	4	(X/Y/Z)	C:/Users/opensim2020/Desktop/walking_exp_matlab/subject01_walking09_straight_02.trc	
DataRate	CameraRate	NumFrames	NumMarkers	Units	OrigDataRate	OrigDataStartFrame	OrigNumFrames	
100.00	100.00	5	43	mm	100.00	2207	362	
Frame#	Time	LFHD			RFHD			LBHD			RBHD			C7			T10			CLAV			STRN			RBAK			LSHO			LUPA			LELB			LFRM			LWRA			LWRB			LFIN			RSHO			RUPA			RELB			RFRM			RWRA			RWRB			RFIN			LASI			RASI			LPSI			RPSI			LTHI			LKNE			LTIB			LANK			LHEE			LTOE			RTHI			RKNE			RTIB			RANK			RHEE			RTOE			*39			*40			*41			*42			
		X1	Y1	Z1	X2	Y2	Z2	X3	Y3	Z3	X4	Y4	Z4	X5	Y5	Z5	X6	Y6	Z6	X7	Y7	Z7	X8	Y8	Z8	X9	Y9	Z9	X10	Y10	Z10	X11	Y11	Z11	X12	Y12	Z12	X13	Y13	Z13	X14	Y14	Z14	X15	Y15	Z15	X16	Y16	Z16	X17	Y17	Z17	X18	Y18	Z18	X19	Y19	Z19	X20	Y20	Z20	X21	Y21	Z21	X22	Y22	Z22	X23	Y23	Z23	X24	Y24	Z24	X25	Y25	Z25	X26	Y26	Z26	X27	Y27	Z27	X28	Y28	Z28	X29	Y29	Z29	X30	Y30	Z30	X31	Y31	Z31	X32	Y32	Z32	X33	Y33	Z33	X34	Y34	Z34	X35	Y35	Z35	X36	Y36	Z36	X37	Y37	Z37	X38	Y38	Z38	X39	Y39	Z39	X40	Y40	Z40	X41	Y41	Z41	X42	Y42	Z42	X43	Y43	Z43	

317	3.160	1478.67419	-891.52191	1647.97192	1365.68811	-910.28253	1643.16565	1468.33228	-768.84271	1628.09961	1348.20081	-785.09918	1622.57227	1439.91528	-703.35028	1419.27234	1441.54749	-677.65710	1122.38269	1440.47705	-846.72644	1351.55188	1453.89575	-894.48322	1200.30896	1371.07104	-654.19293	1217.58484	1600.40759	-787.79602	1390.01086	1692.06177	-780.38617	1207.89209	1695.54736	-786.17133	1053.83386	1706.15918	-857.66010	959.73346	1669.35803	-964.54230	877.21484	1699.18298	-917.38068	854.20154	1702.60571	-986.41321	805.88489	1287.98596	-782.51801	1373.77905	1199.72632	-720.01099	1168.20508	1206.22937	-717.53778	1044.63940	1181.72180	-734.43219	924.98309	1205.14087	-802.96448	801.75317	1167.29004	-759.36273	805.67267	1170.17688	-790.08972	725.31903	1560.39832	-850.58441	915.82898	1344.82825	-871.41705	926.58875	1491.57727	-670.20972	929.76685	1346.21545	-684.39581	935.54358	1603.25378	-778.97369	579.84314	1590.44226	-745.55859	447.06259	1600.13660	-614.65735	308.69662	1554.00085	-478.76859	134.92169	1501.58545	-424.34134	133.07704	1551.68872	-580.89014	31.58937	1285.05847	-882.54510	599.33435	1316.82544	-927.17365	448.94293	1308.06458	-903.43219	273.77222	1356.64368	-901.53906	69.10319	1407.80566	-855.08746	30.53803	1355.20959	-1041.61023	33.99411	1385.91821	-904.57574	1679.41626	-3101.93799	1973.11560	1023.51538	-3140.66113	2012.41980	1021.92639			 
318	3.170	1476.80725	-898.57440	1648.76111	1363.81848	-917.23956	1643.80273	1466.57043	-775.92517	1628.81860	1346.45386	-792.06873	1623.18286	1438.24463	-710.53540	1419.74683	1439.58203	-685.50854	1122.74451	1438.84204	-853.92310	1352.30762	1452.16370	-902.09998	1201.24963	1369.02979	-661.89520	1218.08716	1598.80530	-794.84302	1390.55249	1690.68152	-787.49139	1208.50854	1693.75757	-792.46625	1054.31787	1704.75842	-863.03101	959.56873	1668.09436	-969.28412	875.95648	1698.07971	-921.92065	853.50519	1701.34802	-990.56409	804.43835	1286.40161	-789.92096	1374.68982	1197.85754	-727.70825	1169.03638	1204.62769	-725.49036	1045.38281	1180.24744	-742.65350	925.73059	1203.76050	-811.78241	802.88232	1166.09778	-767.96814	806.28546	1169.09473	-798.81152	726.08435	1558.30188	-858.70624	916.64398	1342.87537	-879.66650	926.98950	1489.57141	-678.28571	930.57562	1344.30054	-692.65686	936.37201	1602.91077	-790.01074	580.05243	1591.20105	-757.84210	447.11932	1600.46338	-624.16357	311.73270	1554.06409	-485.24915	140.29953	1500.92505	-431.77884	140.34299	1551.44128	-582.21075	32.14301	1284.17566	-888.31665	599.34583	1316.16321	-932.24121	448.47821	1307.78516	-906.33911	273.24387	1356.58789	-901.92450	68.98486	1407.78064	-855.22400	30.71921	1355.34546	-1041.98975	33.36728	1384.00354	-911.56317	1680.08667	-3101.87964	1973.13989	1023.47217	-3140.78540	2012.55884	1022.14270			 
319	3.180	1475.07910	-905.51923	1649.53540	1362.07813	-924.13812	1644.48682	1464.90967	-782.91040	1629.48218	1344.77136	-799.06964	1623.74170	1436.71228	-717.75012	1420.24646	1437.53455	-693.28796	1123.15198	1437.32861	-861.18500	1353.01453	1450.41528	-909.57910	1202.00134	1366.95361	-669.53357	1218.60156	1597.26868	-801.98090	1391.03955	1689.19434	-794.52917	1208.96924	1692.10144	-798.67139	1054.74817	1703.40100	-868.33582	959.37048	1666.94275	-973.84497	874.65698	1697.10901	-926.29053	852.72009	1700.16724	-994.46198	802.91431	1284.84985	-797.23724	1375.42810	1195.84399	-735.52429	1169.99939	1202.94153	-733.40991	1046.15344	1178.67859	-751.01172	926.46454	1202.68909	-820.11615	803.65961	1164.77295	-776.78894	807.13867	1167.94983	-807.66425	726.87805	1556.20496	-866.62433	917.33496	1340.99353	-887.68604	927.35278	1487.67041	-686.02893	931.24713	1342.39355	-700.65692	937.19000	1602.74023	-801.21002	580.29407	1592.08655	-770.33484	447.26230	1600.86682	-634.20465	314.95718	1554.08276	-492.47116	145.83243	1500.32019	-439.98578	147.82513	1550.79553	-583.44269	32.16718	1283.02222	-894.38531	599.22668	1315.37695	-937.04303	448.08487	1307.47156	-908.82892	272.93243	1356.71375	-902.39893	69.04539	1407.81628	-855.26941	30.72402	1355.69714	-1042.42993	33.03107	1382.23267	-918.48260	1680.79272	-3102.06226	1973.09912	1023.42035	-3140.72656	2012.60315	1022.01483			 
320	3.190	1473.46570	-912.44281	1650.26892	1360.45215	-930.98163	1645.19861	1463.34583	-789.84418	1630.10828	1342.76501	-806.10919	1624.34497	1435.16650	-724.94611	1420.71777	1435.38855	-700.94458	1123.56982	1435.92688	-868.60101	1353.96460	1448.69519	-917.00928	1202.78345	1364.92432	-677.01862	1219.06982	1595.76563	-809.14154	1391.42090	1687.60034	-801.41333	1209.29211	1690.48645	-804.86511	1055.09290	1702.12354	-873.51575	959.11444	1665.79285	-978.10980	873.10400	1696.13281	-930.43262	851.83563	1699.05322	-998.16974	801.19879	1283.33948	-804.78210	1376.21729	1193.92651	-743.15234	1170.80969	1201.14563	-741.36432	1046.83716	1176.99731	-759.40662	927.17737	1201.40649	-828.94727	804.59125	1163.27625	-785.70807	807.96381	1166.78284	-816.97681	727.80450	1554.16431	-874.29730	918.00159	1339.17468	-895.35394	927.64899	1485.76501	-693.62646	931.80853	1340.58545	-708.48138	937.95123	1602.70154	-812.41614	580.60699	1592.95483	-783.02734	447.44513	1601.10889	-644.61108	318.14157	1554.10315	-500.31616	151.38452	1499.65259	-448.91223	155.29823	1550.32996	-585.48010	32.87430	1281.76416	-900.47455	599.34692	1314.39819	-941.09991	447.39713	1307.03394	-910.94977	272.66403	1356.91577	-902.70941	69.05647	1407.79480	-855.33832	30.73817	1355.97424	-1042.74890	32.74090	1380.56201	-925.36804	1681.50842	-3101.95020	1973.19666	1023.43317	-3140.68335	2012.56250	1022.09497			 
321	3.200	1471.97717	-919.31836	1650.91162	1358.90356	-937.78937	1645.89136	1461.94409	-796.75421	1630.66272	1341.80151	-812.71405	1624.88391	1433.71252	-732.12244	1421.18201	1433.23499	-708.40735	1123.93274	1434.35974	-875.67181	1354.40344	1447.07141	-924.32831	1203.39575	1362.97058	-684.44934	1219.53601	1594.32361	-816.34558	1391.74866	1685.91858	-808.11011	1209.50110	1688.89795	-811.03906	1055.41138	1700.88025	-878.70691	958.84644	1664.73279	-982.30273	871.58673	1695.26538	-934.38733	850.86383	1698.04089	-1001.66925	799.44452	1281.90271	-811.89465	1376.82385	1192.08850	-750.81366	1171.49316	1199.26489	-749.29297	1047.47852	1175.22852	-767.92426	927.80219	1199.89294	-838.22925	805.78540	1161.79248	-794.75726	808.79480	1165.48267	-826.43011	728.61658	1552.23743	-881.74823	918.57910	1337.83264	-901.73645	927.62634	1483.90723	-700.93164	932.13165	1338.65771	-716.02777	938.52710	1602.76538	-823.58344	581.00055	1593.77979	-795.94073	447.80057	1601.26880	-655.55457	321.34766	1554.06873	-508.76236	156.92395	1499.08069	-458.35818	162.78473	1549.75037	-587.99261	34.52923	1280.72705	-906.00049	599.11084	1313.41724	-945.02856	446.95081	1306.71838	-912.52814	272.25772	1357.03027	-902.92719	68.93748	1407.90039	-855.36133	30.82210	1356.07080	-1043.06238	32.43666	1379.04199	-932.06091	1682.16174	-3101.90845	1973.07910	1023.52130	-3140.81445	2012.53394	1022.01978			 
